{
  "accessors": [
    {
      "bufferView": 2,
      "componentType": 5126,
      "count": 120,
      "max": [
        1.4836900234222412,
        0.29859998822212219,
        0.13531999289989471
      ],
      "min": [
        -1.488070011138916,
        -0.29859998822212219,
        -0.051320001482963562
      ],
      "type": "VEC3"
    },
    {
      "bufferView": 2,
      "byteOffset": 1440,
      "componentType": 5126,
      "count": 120,
      "max": [
        0.9690786600112915,
        0.74434232711791992,
        -0.19831585884094238
      ],
      "min": [
        -0.93195736408233643,
        -0.74434232711791992,
        -0.71835231781005859
      ],
      "type": "VEC3"
    },
    {
      "bufferView": 3,
      "componentType": 5126,
      "count": 120,
      "max": [
        0.59034919738769531,
        0.99408823251724243,
        0.71896928548812866,
        1
      ],
      "min": [
        -0.55870336294174194,
        -0.99439030885696411,
        -0.88806831836700439,
        -1
      ],
      "type": "VEC4"
    },
    {
      "bufferView": 1,
      "componentType": 5126,
      "count": 120,
      "max": [
        0.97650998830795288,
        0.97701001167297363
      ],
      "min": [
        0.011459999717772007,
        0.026590000838041306
      ],
      "type": "VEC2"
    },
    {
      "bufferView": 0,
      "componentType": 5125,
      "count": 324,
      "max": [
        119
      ],
      "min": [
        0
      ],
      "type": "SCALAR"
    },
    {
      "bufferView": 2,
      "byteOffset": 2880,
      "componentType": 5126,
      "count": 290,
      "max": [
        2.9995698928833008,
        1.3697700500488281,
        0.0098400004208087921
      ],
      "min": [
        -2.8939800262451172,
        -1.3697700500488281,
        -0.90316998958587646
      ],
      "type": "VEC3"
    },
    {
      "bufferView": 2,
      "byteOffset": 6360,
      "componentType": 5126,
      "count": 290,
      "max": [
        0.7071068286895752,
        0.96333515644073486,
        1
      ],
      "min": [
        -0.7071068286895752,
        -0.96333515644073486,
        -0.98656719923019409
      ],
      "type": "VEC3"
    },
    {
      "bufferView": 3,
      "byteOffset": 1920,
      "componentType": 5126,
      "count": 290,
      "max": [
        0.96137970685958862,
        1,
        0.96799492835998535,
        1
      ],
      "min": [
        -1,
        -1,
        -0.98074710369110107,
        -1
      ],
      "type": "VEC4"
    },
    {
      "bufferView": 0,
      "byteOffset": 1296,
      "componentType": 5125,
      "count": 756,
      "max": [
        289
      ],
      "min": [
        0
      ],
      "type": "SCALAR"
    },
    {
      "bufferView": 2,
      "byteOffset": 9840,
      "componentType": 5126,
      "count": 512,
      "max": [
        1,
        1,
        0.90745997428894043
      ],
      "min": [
        -1,
        -1,
        -0.90745997428894043
      ],
      "type": "VEC3"
    },
    {
      "bufferView": 2,
      "byteOffset": 15984,
      "componentType": 5126,
      "count": 512,
      "max": [
        1,
        1,
        0.86143535375595093
      ],
      "min": [
        -1,
        -1,
        -0.86102098226547241
      ],
      "type": "VEC3"
    },
    {
      "bufferView": 3,
      "byteOffset": 6560,
      "componentType": 5126,
      "count": 512,
      "max": [
        0.99984955787658691,
        0.20485413074493408,
        1,
        1
      ],
      "min": [
        -0.99985355138778687,
        -0.22678431868553162,
        -0.99385815858840942,
        1
      ],
      "type": "VEC4"
    },
    {
      "bufferView": 1,
      "byteOffset": 960,
      "componentType": 5126,
      "count": 512,
      "max": [
        0.98790997266769409,
        0.48216000199317932
      ],
      "min": [
        0.52653002738952637,
        0.02029000036418438
      ],
      "type": "VEC2"
    },
    {
      "bufferView": 0,
      "byteOffset": 4320,
      "componentType": 5125,
      "count": 1716,
      "max": [
        511
      ],
      "min": [
        0
      ],
      "type": "SCALAR"
    },
    {
      "bufferView": 2,
      "byteOffset": 22128,
      "componentType": 5126,
      "count": 290,
      "max": [
        2.9995698928833008,
        1.3697700500488281,
        0.0098400004208087921
      ],
      "min": [
        -2.8939800262451172,
        -1.3697700500488281,
        -0.90316998958587646
      ],
      "type": "VEC3"
    },
    {
      "bufferView": 2,
      "byteOffset": 25608,
      "componentType": 5126,
      "count": 290,
      "max": [
        0.7071068286895752,
        0.96333515644073486,
        1
      ],
      "min": [
        -0.7071068286895752,
        -0.96333515644073486,
        -0.98656719923019409
      ],
      "type": "VEC3"
    },
    {
      "bufferView": 3,
      "byteOffset": 14752,
      "componentType": 5126,
      "count": 290,
      "max": [
        0.96137970685958862,
        1,
        0.96799492835998535,
        1
      ],
      "min": [
        -1,
        -1,
        -0.98074710369110107,
        -1
      ],
      "type": "VEC4"
    },
    {
      "bufferView": 0,
      "byteOffset": 11184,
      "componentType": 5125,
      "count": 756,
      "max": [
        289
      ],
      "min": [
        0
      ],
      "type": "SCALAR"
    },
    {
      "bufferView": 2,
      "byteOffset": 29088,
      "componentType": 5126,
      "count": 512,
      "max": [
        1,
        1,
        0.90745997428894043
      ],
      "min": [
        -1,
        -1,
        -0.90745997428894043
      ],
      "type": "VEC3"
    },
    {
      "bufferView": 2,
      "byteOffset": 35232,
      "componentType": 5126,
      "count": 512,
      "max": [
        1,
        1,
        0.86143535375595093
      ],
      "min": [
        -1,
        -1,
        -0.86102098226547241
      ],
      "type": "VEC3"
    },
    {
      "bufferView": 3,
      "byteOffset": 19392,
      "componentType": 5126,
      "count": 512,
      "max": [
        0.99984955787658691,
        0.20485413074493408,
        1,
        1
      ],
      "min": [
        -0.99985355138778687,
        -0.22678431868553162,
        -0.99385815858840942,
        1
      ],
      "type": "VEC4"
    },
    {
      "bufferView": 1,
      "byteOffset": 5056,
      "componentType": 5126,
      "count": 512,
      "max": [
        0.98790997266769409,
        0.48216000199317932
      ],
      "min": [
        0.52653002738952637,
        0.02029000036418438
      ],
      "type": "VEC2"
    },
    {
      "bufferView": 0,
      "byteOffset": 14208,
      "componentType": 5125,
      "count": 1716,
      "max": [
        511
      ],
      "min": [
        0
      ],
      "type": "SCALAR"
    },
    {
      "bufferView": 2,
      "byteOffset": 41376,
      "componentType": 5126,
      "count": 512,
      "max": [
        1,
        1,
        0.90745997428894043
      ],
      "min": [
        -1,
        -1,
        -0.90745997428894043
      ],
      "type": "VEC3"
    },
    {
      "bufferView": 2,
      "byteOffset": 47520,
      "componentType": 5126,
      "count": 512,
      "max": [
        1,
        1,
        0.86143535375595093
      ],
      "min": [
        -1,
        -1,
        -0.86102098226547241
      ],
      "type": "VEC3"
    },
    {
      "bufferView": 3,
      "byteOffset": 27584,
      "componentType": 5126,
      "count": 512,
      "max": [
        0.99984955787658691,
        0.20485413074493408,
        1,
        1
      ],
      "min": [
        -0.99985355138778687,
        -0.22678431868553162,
        -0.99385815858840942,
        1
      ],
      "type": "VEC4"
    },
    {
      "bufferView": 1,
      "byteOffset": 9152,
      "componentType": 5126,
      "count": 512,
      "max": [
        0.98790997266769409,
        0.48216000199317932
      ],
      "min": [
        0.52653002738952637,
        0.02029000036418438
      ],
      "type": "VEC2"
    },
    {
      "bufferView": 0,
      "byteOffset": 21072,
      "componentType": 5125,
      "count": 1716,
      "max": [
        511
      ],
      "min": [
        0
      ],
      "type": "SCALAR"
    },
    {
      "bufferView": 2,
      "byteOffset": 53664,
      "componentType": 5126,
      "count": 512,
      "max": [
        1,
        1,
        0.90745997428894043
      ],
      "min": [
        -1,
        -1,
        -0.90745997428894043
      ],
      "type": "VEC3"
    },
    {
      "bufferView": 2,
      "byteOffset": 59808,
      "componentType": 5126,
      "count": 512,
      "max": [
        1,
        1,
        0.86143535375595093
      ],
      "min": [
        -1,
        -1,
        -0.86102098226547241
      ],
      "type": "VEC3"
    },
    {
      "bufferView": 3,
      "byteOffset": 35776,
      "componentType": 5126,
      "count": 512,
      "max": [
        0.99984955787658691,
        0.20485413074493408,
        1,
        1
      ],
      "min": [
        -0.99985355138778687,
        -0.22678431868553162,
        -0.99385815858840942,
        1
      ],
      "type": "VEC4"
    },
    {
      "bufferView": 1,
      "byteOffset": 13248,
      "componentType": 5126,
      "count": 512,
      "max": [
        0.98790997266769409,
        0.48216000199317932
      ],
      "min": [
        0.52653002738952637,
        0.02029000036418438
      ],
      "type": "VEC2"
    },
    {
      "bufferView": 0,
      "byteOffset": 27936,
      "componentType": 5125,
      "count": 1716,
      "max": [
        511
      ],
      "min": [
        0
      ],
      "type": "SCALAR"
    }
  ],
  "asset": {
    "extras": {
      "author": "Chaitanya Krishnan (https://sketchfab.com/chaitanyak)",
      "license": "CC-BY-4.0 (http://creativecommons.org/licenses/by/4.0/)",
      "source": "https://sketchfab.com/models/xcix0fdyVU8S45VrCpqVzkZJ4Ne",
      "title": "skateboard"
    },
    "generator": "Sketchfab-3.20.5",
    "version": "2.0"
  },
  "bufferViews": [
    {
      "buffer": 0,
      "byteLength": 34800,
      "byteOffset": 0,
      "name": "floatBufferViews",
      "target": 34963
    },
    {
      "buffer": 0,
      "byteLength": 17344,
      "byteOffset": 34800,
      "byteStride": 8,
      "name": "floatBufferViews",
      "target": 34962
    },
    {
      "buffer": 0,
      "byteLength": 65952,
      "byteOffset": 52144,
      "byteStride": 12,
      "name": "floatBufferViews",
      "target": 34962
    },
    {
      "buffer": 0,
      "byteLength": 43968,
      "byteOffset": 118096,
      "byteStride": 16,
      "name": "floatBufferViews",
      "target": 34962
    }
  ],
  "buffers": [
    {
      "byteLength": 162064,
      "uri": "scene.bin"
    }
  ],
  "images": [
    {
      "uri": "wheel_baseColor.jpeg"
    },
    {
      "uri": "board01_baseColor.jpeg"
    },
    {
      "uri": "board01_normal.png"
    }
  ],
  "materials": [
    {
      "doubleSided": true,
      "emissiveFactor": [
        0,
        0,
        0
      ],
      "name": "wheel",
      "pbrMetallicRoughness": {
        "baseColorFactor": [
          1,
          1,
          1,
          1
        ],
        "baseColorTexture": {
          "index": 0,
          "texCoord": 0
        },
        "metallicFactor": 0,
        "roughnessFactor": 0.59999999999999998
      }
    },
    {
      "doubleSided": true,
      "emissiveFactor": [
        0,
        0,
        0
      ],
      "name": "chassie",
      "pbrMetallicRoughness": {
        "baseColorFactor": [
          0.64000001904000015,
          0.64000001904000015,
          0.64000001904000015,
          1
        ],
        "metallicFactor": 0,
        "roughnessFactor": 0.59999999999999998
      }
    },
    {
      "doubleSided": true,
      "emissiveFactor": [
        0,
        0,
        0
      ],
      "name": "board01",
      "normalTexture": {
        "index": 2,
        "scale": 1,
        "texCoord": 0
      },
      "pbrMetallicRoughness": {
        "baseColorFactor": [
          1,
          1,
          1,
          1
        ],
        "baseColorTexture": {
          "index": 1,
          "texCoord": 0
        },
        "metallicFactor": 0,
        "roughnessFactor": 0.59999999999999998
      }
    }
  ],
  "meshes": [
    {
      "name": "board01_0",
      "primitives": [
        {
          "attributes": {
            "NORMAL": 1,
            "POSITION": 0,
            "TANGENT": 2,
            "TEXCOORD_0": 3
          },
          "indices": 4,
          "material": 2,
          "mode": 4
        }
      ]
    },
    {
      "name": "undercarriage_0",
      "primitives": [
        {
          "attributes": {
            "NORMAL": 6,
            "POSITION": 5,
            "TANGENT": 7
          },
          "indices": 8,
          "material": 1,
          "mode": 4
        }
      ]
    },
    {
      "name": "wheel01.003_0",
      "primitives": [
        {
          "attributes": {
            "NORMAL": 10,
            "POSITION": 9,
            "TANGENT": 11,
            "TEXCOORD_0": 12
          },
          "indices": 13,
          "material": 0,
          "mode": 4
        }
      ]
    },
    {
      "name": "undercarriage.001_0",
      "primitives": [
        {
          "attributes": {
            "NORMAL": 15,
            "POSITION": 14,
            "TANGENT": 16
          },
          "indices": 17,
          "material": 1,
          "mode": 4
        }
      ]
    },
    {
      "name": "wheel01.000_0",
      "primitives": [
        {
          "attributes": {
            "NORMAL": 19,
            "POSITION": 18,
            "TANGENT": 20,
            "TEXCOORD_0": 21
          },
          "indices": 22,
          "material": 0,
          "mode": 4
        }
      ]
    },
    {
      "name": "wheel01.001_0",
      "primitives": [
        {
          "attributes": {
            "NORMAL": 24,
            "POSITION": 23,
            "TANGENT": 25,
            "TEXCOORD_0": 26
          },
          "indices": 27,
          "material": 0,
          "mode": 4
        }
      ]
    },
    {
      "name": "wheel01.002_0",
      "primitives": [
        {
          "attributes": {
            "NORMAL": 29,
            "POSITION": 28,
            "TANGENT": 30,
            "TEXCOORD_0": 31
          },
          "indices": 32,
          "material": 0,
          "mode": 4
        }
      ]
    }
  ],
  "nodes": [
    {
      "children": [
        1
      ],
      "name": "RootNode (gltf orientation matrix)",
      "rotation": [
        -0.70710678118654746,
        -0,
        -0,
        0.70710678118654757
      ]
    },
    {
      "children": [
        2
      ],
      "name": "RootNode (model correction matrix)"
    },
    {
      "children": [
        3,
        5,
        7,
        9,
        11,
        13,
        15,
        17,
        19,
        21
      ],
      "name": "Root"
    },
    {
      "children": [
        4
      ],
      "matrix": [
        -0.29086000000000006,
        0.95517000000000007,
        -0.05519000000000001,
        0,
        -0.77110000000000001,
        -0.19988000000000003,
        0.60452000000000006,
        0,
        0.56639000000000006,
        0.21839000000000003,
        0.7946700000000001,
        0,
        -0.0040400000000000011,
        1.00545,
        4.7381600000000006,
        1
      ],
      "name": "Lamp"
    },
    {
      "name": "Lamp"
    },
    {
      "children": [
        6
      ],
      "matrix": [
        1,
        0,
        0,
        0,
        0,
        1,
        0,
        0,
        0,
        0,
        1,
        0,
        0.0012500000000000002,
        0.00011000000000000003,
        -0.00087000000000000033,
        1
      ],
      "name": "board01"
    },
    {
      "mesh": 0,
      "name": "board01_0"
    },
    {
      "children": [
        8
      ],
      "matrix": [
        0.029200000000000004,
        0,
        0,
        0,
        0,
        0.21060000000000001,
        0,
        0,
        0,
        0,
        0.21060000000000001,
        0,
        0.95419000000000009,
        0.00097000000000000038,
        -0.054070000000000014,
        1
      ],
      "name": "undercarriage"
    },
    {
      "mesh": 1,
      "name": "undercarriage_0"
    },
    {
      "children": [
        10
      ],
      "matrix": [
        -0.29086000000000006,
        0.95517000000000007,
        -0.05519000000000001,
        0,
        -0.77110000000000001,
        -0.19988000000000003,
        0.60452000000000006,
        0,
        0.56639000000000006,
        0.21839000000000003,
        0.7946700000000001,
        0,
        -0.0040400000000000011,
        0.45987000000000006,
        -2.8617399999999997,
        1
      ],
      "name": "Lamp.001"
    },
    {
      "name": "Lamp.001"
    },
    {
      "children": [
        12
      ],
      "matrix": [
        -0.29086000000000006,
        0.95517000000000007,
        -0.05519000000000001,
        0,
        -0.77110000000000001,
        -0.19988000000000003,
        0.60452000000000006,
        0,
        0.56639000000000006,
        0.21839000000000003,
        0.7946700000000001,
        0,
        0.76658000000000004,
        -2.5462799999999999,
        -0.068250000000000019,
        1
      ],
      "name": "Lamp.002"
    },
    {
      "name": "Lamp.002"
    },
    {
      "children": [
        14
      ],
      "matrix": [
        0.10942000000000002,
        0,
        -0,
        0,
        0,
        0,
        0.10942000000000002,
        0,
        0,
        -0.069550000000000015,
        0,
        0,
        -0.91074000000000011,
        -0.22783000000000003,
        -0.21138000000000001,
        1
      ],
      "name": "wheel01.003"
    },
    {
      "mesh": 2,
      "name": "wheel01.003_0"
    },
    {
      "children": [
        16
      ],
      "matrix": [
        0.029200000000000004,
        0,
        0,
        0,
        0,
        0.21060000000000001,
        0,
        0,
        0,
        0,
        0.21060000000000001,
        0,
        -0.90862000000000009,
        0.00097000000000000038,
        -0.054070000000000014,
        1
      ],
      "name": "undercarriage.001"
    },
    {
      "mesh": 3,
      "name": "undercarriage.001_0"
    },
    {
      "children": [
        18
      ],
      "matrix": [
        0.10942000000000002,
        0,
        -0,
        0,
        0,
        0,
        0.10942000000000002,
        0,
        0,
        -0.069550000000000015,
        0,
        0,
        0.95267000000000013,
        -0.22783000000000003,
        -0.21138000000000001,
        1
      ],
      "name": "wheel01.000"
    },
    {
      "mesh": 4,
      "name": "wheel01.000_0"
    },
    {
      "children": [
        20
      ],
      "matrix": [
        0.10942000000000002,
        0,
        -0,
        0,
        0,
        0,
        0.10942000000000002,
        0,
        0,
        -0.069550000000000015,
        0,
        0,
        0.95267000000000013,
        0.22403000000000003,
        -0.21138000000000001,
        1
      ],
      "name": "wheel01.001"
    },
    {
      "mesh": 5,
      "name": "wheel01.001_0"
    },
    {
      "children": [
        22
      ],
      "matrix": [
        0.10942000000000002,
        0,
        -0,
        0,
        0,
        0,
        0.10942000000000002,
        0,
        0,
        -0.069550000000000015,
        0,
        0,
        -0.91074000000000011,
        0.22403000000000003,
        -0.21138000000000001,
        1
      ],
      "name": "wheel01.002"
    },
    {
      "mesh": 6,
      "name": "wheel01.002_0"
    }
  ],
  "samplers": [
    {
      "magFilter": 9729,
      "minFilter": 9987,
      "wrapS": 10497,
      "wrapT": 10497
    }
  ],
  "scene": 0,
  "scenes": [
    {
      "name": "OSG_Scene",
      "nodes": [
        0
      ]
    }
  ],
  "textures": [
    {
      "sampler": 0,
      "source": 0
    },
    {
      "sampler": 0,
      "source": 1
    },
    {
      "sampler": 0,
      "source": 2
    }
  ]
}

